<?xml version="1.0" encoding="UTF-8"?>
<!DOCTYPE svg PUBLIC "-//W3C//DTD SVG 1.1//EN" "http://www.w3.org/Graphics/SVG/1.1/DTD/svg11.dtd">
<!-- Creator: CorelDRAW 2026 -->
<svg xmlns="http://www.w3.org/2000/svg" xml:space="preserve" width="1.45259in" height="0.420724in" version="1.1" style="shape-rendering:geometricPrecision; text-rendering:geometricPrecision; image-rendering:optimizeQuality; fill-rule:evenodd; clip-rule:evenodd"
viewBox="0 0 153.91 44.58"
 xmlns:xlink="http://www.w3.org/1999/xlink"
 xmlns:xodm="http://www.corel.com/coreldraw/odm/2003">
 <defs>
  <style type="text/css">
   <![CDATA[
    .fil2 {fill:#26947E}
    .fil0 {fill:#FF712B}
    .fil1 {fill:#FFA347}
   ]]>
  </style>
 </defs>
 <g id="Layer_x0020_1">
  <metadata id="CorelCorpID_0Corel-Layer"/>
  <g id="_3013261155568">
   <path class="fil0" d="M131.62 0c-12.31,0 -22.29,9.98 -22.29,22.29 0,12.31 9.98,22.29 22.29,22.29 12.31,0 22.29,-9.98 22.29,-22.29 0,-12.31 -9.98,-22.29 -22.29,-22.29z"/>
   <path class="fil1" d="M76.96 0c-12.31,0 -22.29,9.98 -22.29,22.29 0,12.31 9.98,22.29 22.29,22.29 12.31,0 22.29,-9.98 22.29,-22.29 0,-12.31 -9.98,-22.29 -22.29,-22.29z"/>
   <path class="fil2" d="M22.29 0c-12.31,0 -22.29,9.98 -22.29,22.29 0,12.31 9.98,22.29 22.29,22.29 12.31,0 22.29,-9.98 22.29,-22.29 0,-12.31 -9.98,-22.29 -22.29,-22.29z"/>
  </g>
  <g id="_3013261153840">
   <path class="fil0" d="M131.62 0c-12.31,0 -22.29,9.98 -22.29,22.29 0,12.31 9.98,22.29 22.29,22.29 12.31,0 22.29,-9.98 22.29,-22.29 0,-12.31 -9.98,-22.29 -22.29,-22.29z"/>
   <path class="fil1" d="M76.96 0c-12.31,0 -22.29,9.98 -22.29,22.29 0,12.31 9.98,22.29 22.29,22.29 12.31,0 22.29,-9.98 22.29,-22.29 0,-12.31 -9.98,-22.29 -22.29,-22.29z"/>
   <path class="fil2" d="M22.29 0c-12.31,0 -22.29,9.98 -22.29,22.29 0,12.31 9.98,22.29 22.29,22.29 12.31,0 22.29,-9.98 22.29,-22.29 0,-12.31 -9.98,-22.29 -22.29,-22.29z"/>
  </g>
 </g>
</svg>
