<?xml version="1.0" encoding="UTF-8"?>
<!DOCTYPE svg PUBLIC "-//W3C//DTD SVG 1.1//EN" "http://www.w3.org/Graphics/SVG/1.1/DTD/svg11.dtd">
<!-- Creator: CorelDRAW 2026 -->
<svg xmlns="http://www.w3.org/2000/svg" xml:space="preserve" width="1.98052in" height="0.744283in" version="1.1" style="shape-rendering:geometricPrecision; text-rendering:geometricPrecision; image-rendering:optimizeQuality; fill-rule:evenodd; clip-rule:evenodd"
viewBox="0 0 402.04 151.09"
 xmlns:xlink="http://www.w3.org/1999/xlink"
 xmlns:xodm="http://www.corel.com/coreldraw/odm/2003">
 <defs>
  <style type="text/css">
   <![CDATA[
    .fil0 {fill:white}
    .fil1 {fill:#FFA347;fill-rule:nonzero}
   ]]>
  </style>
 </defs>
 <g id="Layer_x0020_1">
  <metadata id="CorelCorpID_0Corel-Layer"/>
  <g id="_3013836884592">
   <path class="fil0" d="M41.81 119.27c-8.55,0 -15.96,-1.33 -22.24,-4 -6.27,-2.66 -11.1,-6.44 -14.49,-11.33 -3.39,-4.89 -5.08,-10.6 -5.08,-17.16l0 -4.83c0,-1.11 0.56,-1.66 1.67,-1.66l12.16 0c1.11,0 1.67,0.55 1.67,1.66l0 4c0,5.66 2.44,10.33 7.33,13.99 4.89,3.66 11.61,5.5 20.15,5.5 7.66,0 13.44,-1.61 17.33,-4.83 3.89,-3.22 5.83,-7.44 5.83,-12.66 0,-3.44 -1,-6.39 -3,-8.83 -2,-2.44 -4.91,-4.69 -8.75,-6.75 -3.83,-2.05 -9.41,-4.52 -16.74,-7.41 -8.11,-3.11 -14.52,-5.94 -19.24,-8.49 -4.72,-2.56 -8.63,-5.91 -11.74,-10.08 -3.11,-4.16 -4.66,-9.41 -4.66,-15.74 0,-9.55 3.41,-17.05 10.24,-22.49 6.83,-5.44 16.07,-8.16 27.73,-8.16 8.22,0 15.44,1.39 21.66,4.16 6.22,2.78 11.02,6.66 14.41,11.66 3.39,5 5.08,10.77 5.08,17.32l0 3.33c0,1.11 -0.55,1.67 -1.67,1.67l-12.49 0c-1.11,0 -1.67,-0.55 -1.67,-1.67l0 -2.5c0,-5.77 -2.3,-10.58 -6.91,-14.41 -4.61,-3.83 -10.97,-5.75 -19.07,-5.75 -6.89,0 -12.22,1.42 -15.99,4.25 -3.78,2.83 -5.66,6.92 -5.66,12.24 0,3.66 0.94,6.66 2.83,9 1.89,2.33 4.69,4.41 8.41,6.25 3.72,1.83 9.41,4.19 17.07,7.08 7.89,3.11 14.27,5.97 19.16,8.58 4.89,2.61 8.94,6.05 12.16,10.33 3.22,4.28 4.83,9.58 4.83,15.91 0,9.77 -3.58,17.52 -10.75,23.24 -7.16,5.72 -17.02,8.58 -29.57,8.58zm118.76 -54.31c0.45,4.55 0.61,9.66 0.5,15.33 0,1.11 -0.56,1.66 -1.67,1.66l-53.14 0c-0.45,0 -0.67,0.22 -0.67,0.66 0,3.78 0.33,6.67 1,8.66 1.22,4.44 3.69,7.91 7.41,10.41 3.72,2.5 8.41,3.75 14.08,3.75 8.22,0 14.55,-3.39 18.99,-10.16 0.56,-1.11 1.28,-1.28 2.17,-0.5l9.49 6.33c0.78,0.67 0.94,1.39 0.5,2.17 -3.11,5 -7.52,8.94 -13.24,11.83 -5.72,2.89 -12.19,4.33 -19.41,4.33 -8.11,0 -14.94,-1.78 -20.49,-5.33 -5.55,-3.55 -9.72,-8.61 -12.49,-15.16 -2.67,-6.55 -4,-14.49 -4,-23.82 0,-8.11 0.61,-14.27 1.83,-18.49 2,-7.66 6,-13.72 11.99,-18.16 6,-4.44 13.27,-6.66 21.82,-6.66 11.22,0 19.6,2.8 25.15,8.41 5.55,5.61 8.94,13.85 10.16,24.74zm-35.31 -19.32c-4.77,0 -8.72,1.19 -11.83,3.58 -3.11,2.39 -5.22,5.58 -6.33,9.58 -0.78,2.44 -1.28,5.55 -1.5,9.33 0,0.44 0.22,0.66 0.67,0.66l38.15 0c0.44,0 0.67,-0.22 0.67,-0.66 -0.22,-3.67 -0.56,-6.39 -1,-8.16 -1.11,-4.33 -3.3,-7.8 -6.58,-10.41 -3.28,-2.61 -7.36,-3.91 -12.24,-3.91zm82.42 -13.33c3.55,0 6.78,0.72 9.66,2.17 0.18,0.08 0.34,0.17 0.46,0.29 -1.96,1.83 -3.7,3.83 -5.23,6.02 -1.75,2.5 -3.2,5.19 -4.35,8.06 -0.45,-0.03 -0.91,-0.04 -1.38,-0.04l-2.33 0.17c-5.22,0.22 -9.52,2.03 -12.91,5.41 -3.39,3.39 -5.08,7.8 -5.08,13.24l0 48.64c0,1.11 -0.56,1.67 -1.67,1.67l-12.66 0c-1.11,0 -1.67,-0.56 -1.67,-1.67l0 -81.46c0,-1.11 0.55,-1.67 1.67,-1.67l12.66 0c1.11,0 1.67,0.56 1.67,1.67l0 8.83c0,0.33 0.08,0.53 0.25,0.58 0.17,0.06 0.31,-0.03 0.42,-0.25 5,-7.77 11.83,-11.66 20.49,-11.66zm59.11 2.5c0,-1.11 0.56,-1.67 1.67,-1.67l12.66 0c1.11,0 1.67,0.56 1.67,1.67l0 78.79c0,13.44 -3.8,23.04 -11.41,28.82 -7.61,5.77 -17.8,8.66 -30.57,8.66 -1.78,0 -4.55,-0.11 -8.33,-0.33 -1.11,-0.11 -1.67,-0.72 -1.67,-1.83l0.5 -11.49c0,-0.44 0.17,-0.83 0.5,-1.17 0.33,-0.33 0.78,-0.44 1.33,-0.33 1.56,0.11 3.83,0.17 6.83,0.17 9.44,0 16.27,-1.75 20.49,-5.25 4.22,-3.5 6.33,-9.41 6.33,-17.74l0 -3c0,-0.22 -0.08,-0.39 -0.25,-0.5 -0.17,-0.11 -0.36,-0.05 -0.59,0.17 -4.66,5.44 -11.49,8.16 -20.49,8.16 -7.22,0 -13.74,-1.89 -19.57,-5.67 -5.83,-3.77 -9.86,-9.33 -12.08,-16.66 -1.44,-4.88 -2.17,-11.66 -2.17,-20.32 0,-9.22 0.83,-16.33 2.5,-21.32 2.11,-6.66 5.86,-12.02 11.24,-16.07 5.38,-4.05 11.74,-6.08 19.07,-6.08 9.11,0 16.27,2.78 21.49,8.33 0.22,0.22 0.42,0.31 0.59,0.25 0.17,-0.06 0.25,-0.19 0.25,-0.42l0 -5.16zm-1 55.97c0.33,-1.78 0.58,-3.66 0.75,-5.66 0.17,-2 0.25,-5.33 0.25,-10 0,-4.66 -0.08,-7.97 -0.25,-9.91 -0.17,-1.94 -0.47,-3.8 -0.92,-5.58 -0.89,-4.11 -2.89,-7.47 -6,-10.08 -3.11,-2.61 -7,-3.91 -11.66,-3.91 -4.66,0 -8.55,1.3 -11.66,3.91 -3.11,2.61 -5.33,5.97 -6.66,10.08 -1.22,3.33 -1.83,8.5 -1.83,15.49 0,7.66 0.56,12.88 1.67,15.66 1.11,4.11 3.3,7.47 6.58,10.08 3.28,2.61 7.25,3.92 11.91,3.92 4.89,0 8.86,-1.31 11.91,-3.92 3.05,-2.61 5.03,-5.97 5.91,-10.08zm96.38 -25.82c0.44,4.55 0.61,9.66 0.5,15.33 0,1.11 -0.56,1.66 -1.67,1.66l-53.14 0c-0.44,0 -0.67,0.22 -0.67,0.66 0,3.78 0.33,6.67 1,8.66 1.22,4.44 3.69,7.91 7.41,10.41 3.72,2.5 8.41,3.75 14.08,3.75 8.22,0 14.55,-3.39 18.99,-10.16 0.56,-1.11 1.28,-1.28 2.16,-0.5l9.5 6.33c0.78,0.67 0.94,1.39 0.5,2.17 -3.11,5 -7.52,8.94 -13.24,11.83 -5.72,2.89 -12.19,4.33 -19.41,4.33 -8.11,0 -14.94,-1.78 -20.49,-5.33 -5.55,-3.55 -9.72,-8.61 -12.49,-15.16 -2.67,-6.55 -4,-14.49 -4,-23.82 0,-8.11 0.61,-14.27 1.83,-18.49 2,-7.66 6,-13.72 11.99,-18.16 6,-4.44 13.27,-6.66 21.82,-6.66 11.22,0 19.6,2.8 25.15,8.41 5.55,5.61 8.94,13.85 10.16,24.74zm-35.31 -19.32c-4.77,0 -8.72,1.19 -11.83,3.58 -3.11,2.39 -5.22,5.58 -6.33,9.58 -0.78,2.44 -1.28,5.55 -1.5,9.33 0,0.44 0.22,0.66 0.67,0.66l38.15 0c0.44,0 0.67,-0.22 0.67,-0.66 -0.22,-3.67 -0.55,-6.39 -1,-8.16 -1.11,-4.33 -3.3,-7.8 -6.58,-10.41 -3.28,-2.61 -7.36,-3.91 -12.24,-3.91z"/>
   <path class="fil1" d="M391.38 117.65c-3.16,0 -5.66,-1 -7.66,-3 -2,-2 -3,-4.5 -3,-7.66 0,-3.16 1,-5.66 3,-7.66 2,-2 4.5,-3 7.66,-3 3.16,0 5.66,1 7.66,3 2,2 3,4.5 3,7.66 0,3.17 -1,5.66 -3,7.66 -2,2 -4.5,3 -7.66,3z"/>
  </g>
 </g>
</svg>
